<svg xmlns="http://www.w3.org/2000/svg" viewBox="0 0 1260 710" fill="none">
  <rect width="1260" height="710" fill="#1B2A4A"/>
  <g transform="translate(430,50) scale(2.8)" fill="none" stroke="#2A7B88" stroke-width="1.2" opacity=".35">
    <path d="M75 10 C78 8, 82 5, 88 5 C94 5, 100 8, 105 12 C108 15, 110 20, 112 28 C114 36, 118 42, 120 50 C122 58, 124 66, 125 74 C126 82, 128 90, 130 98 C132 106, 133 114, 132 122 C131 130, 128 138, 124 146 C120 154, 115 160, 108 165 C101 170, 94 172, 88 175 C82 178, 76 180, 72 178 C68 176, 64 172, 60 166 C56 160, 52 152, 48 144 C44 136, 40 128, 38 120 C36 112, 35 104, 36 96 C37 88, 40 80, 44 72 C48 64, 52 56, 56 48 C60 40, 64 32, 68 24 C72 16, 73 12, 75 10Z"/>
  </g>
  <g transform="translate(430,50) scale(2.8)" fill="#2A7B88" opacity=".12">
    <path d="M75 10 C78 8, 82 5, 88 5 C94 5, 100 8, 105 12 C108 15, 110 20, 112 28 C114 36, 118 42, 120 50 C122 58, 124 66, 125 74 C126 82, 128 90, 130 98 C132 106, 133 114, 132 122 C131 130, 128 138, 124 146 C120 154, 115 160, 108 165 C101 170, 94 172, 88 175 C82 178, 76 180, 72 178 C68 176, 64 172, 60 166 C56 160, 52 152, 48 144 C44 136, 40 128, 38 120 C36 112, 35 104, 36 96 C37 88, 40 80, 44 72 C48 64, 52 56, 56 48 C60 40, 64 32, 68 24 C72 16, 73 12, 75 10Z"/>
  </g>
</svg>
