<svg width="105" height="27" viewBox="0 0 105 27" fill="none" xmlns="http://www.w3.org/2000/svg">
<path d="M1.07819 0.93594L0.5 0.187112V0.102567H3.11705V0.187112L2.53278 0.93594V8.10416C2.53278 10.1272 3.47004 11.1961 5.73409 11.1961C7.99814 11.1961 9.22754 10.091 9.22754 8.07396V1.52172L8.49112 0.19919V0.114645H10.3717V0.19919L9.63531 1.52172V8.12831C9.63531 10.4231 8.10769 11.8302 5.32023 11.8302C2.53277 11.8302 1.07819 10.4895 1.07819 8.17663V0.93594Z" fill="#EDE9E3"/>
<path d="M21.5458 0.102567V0.187112L20.8094 1.50964V11.649H19.3366L13.1409 1.08691H12.9887V10.2419L13.7251 11.5645V11.649H11.8445V11.5645L12.5809 10.2419V1.07484L11.8263 0.193152V0.108606H14.2425L20.4016 10.6043V1.52172L19.6652 0.19919V0.114645H21.5458V0.102567Z" fill="#EDE9E3"/>
<path d="M23.2256 0.187112V0.102567H25.8427V0.187112L25.2584 0.93594V10.8217L25.8366 11.5705V11.6551H23.2195V11.5705L23.8038 10.8217V5.87881V0.93594L23.2256 0.187112Z" fill="#EDE9E3"/>
<path d="M37.224 0.102567V0.187112L36.2989 1.46133L32.9454 11.649H31.5578L27.8635 1.08691L27.1636 0.187112V0.102567H29.4885V0.187112L29.3181 0.899707L32.7933 10.87L35.9094 1.3949L35.3981 0.187112V0.102567H37.2301H37.224Z" fill="#EDE9E3"/>
<path d="M46.7913 9.4448L46.0062 11.6551H38.4898V11.5705L39.0741 10.8217V0.93594L38.4959 0.187112V0.102567H45.6837L46.3531 2.13769H46.1462L44.0952 0.458864H40.5348V5.26586H45.3611V5.94222H40.5348V11.2927H44.3508L46.5905 9.43876H46.7974L46.7913 9.4448Z" fill="#EDE9E3"/>
<path d="M57.728 11.6007V11.649H56.0177L51.5323 5.9241H50.3698V10.8156L50.948 11.5645V11.649H48.3309V11.5645L48.9152 10.8156V0.93594L48.337 0.187112V0.102567H52.9077C55.0805 0.102567 56.3829 1.23789 56.3829 2.95294C56.3829 4.668 55.2205 5.79125 53.2668 5.90598L57.7341 11.5947L57.728 11.6007ZM50.3698 5.55573H52.8164C54.1371 5.55573 54.8553 4.65593 54.8553 3.0073C54.8553 1.35867 54.1189 0.458864 52.7677 0.458864H50.3698V5.55573Z" fill="#EDE9E3"/>
<path d="M58.5131 9.49321H58.7018L59.5416 10.242C60.3815 10.9909 60.9962 11.3955 62.1404 11.3955C63.9176 11.3955 64.8305 10.4413 64.8305 8.99801C64.8305 7.97743 64.4349 7.38562 63.4977 6.89043C62.5543 6.39523 61.2032 6.07517 60.2476 5.54978C59.286 5.02439 58.8113 4.23933 58.8113 3.0557C58.8113 1.20175 60.2172 0 62.3352 0C63.0899 0 63.7411 0.102662 64.5079 0.102662H65.0922L65.7252 2.10759H65.5182L64.6601 1.34064C63.802 0.573699 63.2725 0.356297 62.3169 0.356297C60.8258 0.356297 59.9373 1.12324 59.9373 2.40954C59.9373 3.22479 60.3146 3.81661 61.1849 4.27557C62.0552 4.73453 63.4611 5.07271 64.4532 5.59809C65.4452 6.12348 65.9565 6.92062 65.9565 8.23107C65.9565 10.3387 64.4471 11.7457 62.1039 11.7457C61.2153 11.7457 60.4972 11.6431 59.6755 11.6431H59.213L58.5131 9.48717V9.49321Z" fill="#EDE9E3"/>
<path d="M67.8738 0.187112V0.102567H70.4909V0.187112L69.9066 0.93594V10.8217L70.4848 11.5705V11.6551H67.8678V11.5705L68.452 10.8217V0.93594L67.8738 0.187112Z" fill="#EDE9E3"/>
<path d="M83.0405 5.82748C83.0405 9.23948 80.8312 11.6551 77.5264 11.6551H72.6819V11.5705L73.2661 10.8217V0.93594L72.688 0.187112V0.102567H77.5325C80.8677 0.102567 83.0405 2.46379 83.0405 5.82748ZM81.4459 5.89391C81.4459 2.41548 80.0096 0.458864 77.4047 0.458864H74.7207V11.2927H77.4047C80.0035 11.2927 81.4459 9.34214 81.4459 5.89391Z" fill="#EDE9E3"/>
<path d="M93.4781 11.649H91.1349V11.5645L91.3054 10.8519L90.0881 7.77805H85.1401L84.148 10.3567L84.6593 11.5645V11.649H82.8274V11.5645L83.7707 10.2902L87.3676 1.03256L86.9903 0.0965215H88.5848L92.7965 10.6767L93.4781 11.5584V11.649ZM89.8203 7.1198L87.5806 1.49755L85.4079 7.1198H89.8264H89.8203Z" fill="#EDE9E3"/>
<path d="M104.5 5.82748C104.5 9.23948 102.291 11.6551 98.986 11.6551H94.1414V11.5705L94.7257 10.8217V0.93594L94.1475 0.187112V0.102567H98.992C102.327 0.102567 104.5 2.46379 104.5 5.82748ZM102.912 5.89391C102.912 2.41548 101.475 0.458864 98.8703 0.458864H96.1863V11.2927H98.8703C101.469 11.2927 102.912 9.34214 102.912 5.89391Z" fill="#EDE9E3"/>
<path d="M19.4681 20.9914C19.4681 24.4034 17.2589 26.8189 13.9541 26.8189H9.10951V26.7344L9.69378 25.9856V16.0998L9.1156 15.351V15.2665H13.9602C17.2954 15.2665 19.4681 17.6277 19.4681 20.9914ZM17.8797 21.0578C17.8797 17.5794 16.4433 15.6228 13.8385 15.6228H11.1545V26.4566H13.8385C16.4372 26.4566 17.8797 24.506 17.8797 21.0578Z" fill="#EDE9E3"/>
<path d="M29.6866 24.6087L28.9015 26.8189H21.3851V26.7344L21.9694 25.9856V16.0998L21.3912 15.351V15.2665H28.5789L29.2484 17.3016H29.0415L26.9904 15.6228H23.43V20.4297H28.2564V21.1061H23.43V26.4566H27.2461L29.4858 24.6026H29.6927L29.6866 24.6087Z" fill="#EDE9E3"/>
<path d="M46.4965 16.0998V25.9856L47.0747 26.7344V26.819H44.4759V26.7344L45.0602 25.9856V16.2569H44.9263L40.9703 26.819H40.733L36.7465 16.2569H36.5944V25.4119L37.3308 26.7344V26.819H35.4502V26.7344L36.1866 25.4119V16.2448L35.5536 15.3631V15.2785H37.9516L41.4268 24.5181L44.8837 15.2785H47.093V15.3631L46.5087 16.1119L46.4965 16.0998Z" fill="#EDE9E3"/>
<path d="M49.7832 16.0998L49.205 15.351V15.2665H51.822V15.351L51.2378 16.0998V23.268C51.2378 25.2911 52.175 26.36 54.4391 26.36C56.7031 26.36 57.9325 25.2549 57.9325 23.2379V16.6856L57.1961 15.3631V15.2785H59.0767V15.3631L58.3403 16.6856V23.2922C58.3403 25.587 56.8127 26.9941 54.0252 26.9941C51.2378 26.9941 49.7832 25.6534 49.7832 23.3405V16.0998Z" fill="#EDE9E3"/>
<path d="M70.4396 26.7646V26.8129H68.7294L64.2439 21.088H63.0814V25.9795L63.6596 26.7283V26.8129H61.0426V26.7283L61.6269 25.9795V16.0938L61.0487 15.345V15.2604H65.6194C67.7921 15.2604 69.0946 16.3957 69.0946 18.1108C69.0946 19.8258 67.9321 20.9491 65.9784 21.0638L70.4457 26.7525L70.4396 26.7646ZM63.0814 20.7196H65.5281C66.8488 20.7196 67.5669 19.8198 67.5669 18.1712C67.5669 16.5225 66.8305 15.6227 65.4794 15.6227H63.0814V20.7196Z" fill="#EDE9E3"/>
<path d="M71.1215 21.1785C71.1215 17.5793 73.4829 15.1697 76.8729 15.1697C77.7432 15.1697 78.5526 15.2724 79.356 15.2724H79.8551L80.4515 17.2954H80.2446L79.4047 16.6191C78.5648 15.9427 77.9319 15.5321 76.7877 15.5321C74.2863 15.5321 72.6795 17.229 72.6795 20.9309C72.6795 24.5482 74.1828 26.4021 76.8546 26.4021C78.5648 26.4021 79.8003 25.6352 80.4515 24.6388L80.6889 24.8079C80.0924 25.8405 78.7231 27 76.4773 27C73.2942 27 71.1215 24.6388 71.1215 21.1905V21.1785Z" fill="#EDE9E3"/>
<path d="M82.1979 15.351V15.2665H84.8149V15.351L84.2307 16.0998V25.9856L84.8089 26.7344V26.8189H82.1918V26.7344L82.7761 25.9856V16.0998L82.1979 15.351Z" fill="#EDE9E3"/>
<path d="M96.7622 26.8129H94.419V26.7283L94.5894 26.0158L93.3722 22.9419H88.4241L87.4321 25.5206L87.9433 26.7283V26.8129H86.1114V26.7283L87.0548 25.4541L90.6517 16.1964L90.2743 15.2604H91.8689L96.0805 25.8406L96.7622 26.7223V26.8129ZM93.0983 22.2777L90.8586 16.6554L88.6858 22.2777H93.1044H93.0983Z" fill="#EDE9E3"/>
</svg>
